<svg aria-hidden="true" style="position: absolute; width: 0; height: 0; overflow: hidden;" version="1.1" xmlns="http://www.w3.org/2000/svg" xmlns:xlink="http://www.w3.org/1999/xlink">
    <defs>
        <symbol id="icon-PhotoDrop-Logo-Inline-Two_Toned" viewBox="0 0 260 32">
            <path fill="#262626" style="fill: var(--color1, #262626)" d="M13.233 1.238c1.715 0 3.299 0.397 4.755 1.189s2.597 1.866 3.424 3.221 1.241 2.838 1.241 4.452c0 2.449-0.919 4.54-2.757 6.269s-4.060 2.593-6.663 2.593h-7.674v12.535h-5.559v-30.259h13.233zM13.233 13.73c1.073 0 1.983-0.352 2.734-1.058s1.125-1.563 1.125-2.572c0-1.009-0.376-1.866-1.125-2.572-0.751-0.706-1.661-1.058-2.734-1.058h-7.674v7.262l7.674-0.002z"></path>
            <path fill="#262626" style="fill: var(--color1, #262626)" d="M45.122 1.238h5.56v30.259h-5.56v-12.492h-13.464v12.492h-5.559v-30.259h5.559v12.492h13.464v-12.492z"></path>
            <path fill="#262626" style="fill: var(--color1, #262626)" d="M62.147 3.27c2.466-1.353 5.154-2.032 8.065-2.032s5.599 0.677 8.065 2.032c2.466 1.355 4.418 3.192 5.859 5.512 1.439 2.32 2.16 4.849 2.16 7.587s-0.719 5.267-2.16 7.587c-1.441 2.319-3.393 4.158-5.859 5.512-2.466 1.355-5.154 2.032-8.065 2.032s-5.599-0.677-8.065-2.032c-2.466-1.353-4.42-3.192-5.859-5.512-1.441-2.32-2.16-4.849-2.16-7.587s0.719-5.267 2.16-7.587c1.439-2.32 3.393-4.156 5.859-5.512zM62.767 23.371c2.052 1.93 4.532 2.897 7.443 2.897s5.391-0.964 7.443-2.897c2.052-1.93 3.079-4.264 3.079-7.002s-1.027-5.072-3.079-7.002c-2.052-1.93-4.534-2.897-7.443-2.897s-5.391 0.966-7.443 2.897c-2.052 1.93-3.079 4.266-3.079 7.002s1.025 5.072 3.079 7.002z"></path>
            <path fill="#262626" style="fill: var(--color1, #262626)" d="M87.443 1.238h22.653v5.23h-8.547v25.029h-5.56v-25.029h-8.547v-5.23z"></path>
            <path fill="#262626" style="fill: var(--color1, #262626)" d="M119.263 3.27c2.466-1.353 5.154-2.032 8.065-2.032s5.599 0.677 8.064 2.032c2.466 1.355 4.418 3.192 5.859 5.512 1.439 2.32 2.16 4.849 2.16 7.587s-0.719 5.267-2.16 7.587c-1.441 2.319-3.393 4.158-5.859 5.512-2.466 1.355-5.154 2.032-8.064 2.032s-5.599-0.677-8.065-2.032c-2.466-1.353-4.42-3.192-5.859-5.512-1.441-2.32-2.16-4.849-2.16-7.587s0.719-5.267 2.16-7.587c1.439-2.32 3.393-4.156 5.859-5.512zM119.883 23.371c2.052 1.93 4.532 2.897 7.443 2.897s5.391-0.964 7.443-2.897c2.052-1.93 3.079-4.264 3.079-7.002s-1.027-5.072-3.079-7.002c-2.052-1.93-4.535-2.897-7.443-2.897s-5.391 0.966-7.443 2.897c-2.052 1.93-3.079 4.266-3.079 7.002s1.025 5.072 3.079 7.002z"></path>
            <path fill="#30c" style="fill: var(--color2, #30c)" d="M155.449 0.565c2.899-0.239 5.641 0.215 8.223 1.363 2.583 1.148 4.697 2.818 6.348 5.011 1.649 2.193 2.602 4.653 2.855 7.38 0.253 2.728-0.228 5.306-1.449 7.734-1.22 2.429-2.996 4.42-5.327 5.971-2.332 1.553-4.947 2.447-7.844 2.686l-9.568 0.788-2.803-30.144 9.565-0.788zM157.767 25.499c2.899-0.239 5.273-1.402 7.126-3.493 1.85-2.091 2.656-4.5 2.417-7.229-0.24-2.728-1.471-4.97-3.693-6.726-2.224-1.754-4.785-2.513-7.684-2.275l-4.026 0.332 1.834 19.723 4.026-0.333z"></path>
            <path fill="#30c" style="fill: var(--color2, #30c)" d="M199.785 10.685c-0.157 1.694-0.775 3.206-1.85 4.534-1.076 1.33-2.428 2.302-4.054 2.92l3.923 13.861-5.904-0.485-3.649-12.84-6.316-0.52-1.158 12.445-5.539-0.456 2.8-30.144 13.184 1.085c2.592 0.213 4.726 1.258 6.397 3.129 1.671 1.874 2.393 4.031 2.166 6.47zM190.065 13.531c1.069 0.088 2.009-0.188 2.822-0.831 0.813-0.642 1.265-1.457 1.357-2.449 0.092-0.99-0.202-1.876-0.883-2.654-0.682-0.778-1.556-1.213-2.624-1.301l-7.645-0.63-0.673 7.235 7.647 0.63z"></path>
            <path fill="#30c" style="fill: var(--color2, #30c)" d="M209.798 24.771l-5.437 4.569 25.929 1.402-4.867-5.126-15.625-0.845z"></path>
            <path fill="#30c" style="fill: var(--color2, #30c)" d="M208.848 8.16l-4.855-5.113-1.489 24.392 5.446-4.577 0.899-14.702z"></path>
            <path fill="#30c" style="fill: var(--color2, #30c)" d="M226.499 7.276l5.434-4.567-25.911-1.402 4.865 5.124 15.612 0.845z"></path>
            <path fill="#30c" style="fill: var(--color2, #30c)" d="M228.345 9.187l-0.897 14.685 4.855 5.115 1.489-24.378-5.447 4.579z"></path>
            <path fill="#30c" style="fill: var(--color2, #30c)" d="M249.706 0.36c1.7-0.211 3.325-0.012 4.879 0.595 1.553 0.608 2.833 1.531 3.84 2.773 1.009 1.242 1.625 2.662 1.849 4.262 0.34 2.429-0.281 4.612-1.863 6.552-1.581 1.94-3.665 3.071-6.244 3.39l-7.607 0.943 1.74 12.43-5.511 0.682-4.198-29.999 13.117-1.627zM251.44 12.746c1.062-0.131 1.917-0.593 2.563-1.385 0.647-0.792 0.9-1.688 0.759-2.687-0.14-0.999-0.633-1.803-1.475-2.412-0.841-0.608-1.793-0.845-2.857-0.714l-7.607 0.943 1.009 7.2 7.607-0.945z"></path>
        </symbol>
        <symbol id="icon-arrow_down" viewBox="0 0 64 32">
            <path fill="#6d6d6d" style="fill: var(--color1, #6d6d6d)" d="M0.795 1.234c1.212-1.455 3.374-1.651 4.829-0.439l25.234 21.028 25.234-21.028c1.455-1.212 3.616-1.016 4.829 0.439s1.016 3.617-0.439 4.829l-27.429 22.857c-1.271 1.060-3.118 1.060-4.39 0l-27.429-22.857c-1.455-1.212-1.651-3.374-0.439-4.829z"></path>
        </symbol>
    </defs>
</svg>